PathFileType	4	(X/Y/Z)	C:/Users/beibeiliu/ov580/test_trc\sequence.29_training_dense_left.trc
DataRate	CameraRate	NumFrames	NumMarkers	Units	OrigDataRate	OrigDataStartFrame	OrigNumFrames
120	120	16	19	mm	120	27	78
Frame#	Time	ThumbCMC			ThumbMCP			ThumbIP			ThumbTip			IndexMCP			IndexPIP			IndexTip			MiddleMCP			MiddlePIP			MiddleTip			RingMCP			RingPIP			RingTip			PinkyMCP			PinkyPIP			PinkyTip			BackHand1			BackHand2			BackHand3	
		X0	Y0	Z0	X1	Y1	Z1	X2	Y2	Z2	X3	Y3	Z3	X4	Y4	Z4	X5	Y5	Z5	X6	Y6	Z6	X7	Y7	Z7	X8	Y8	Z8	X9	Y9	Z9	X10	Y10	Z10	X11	Y11	Z11	X12	Y12	Z12	X13	Y13	Z13	X14	Y14	Z14	X15	Y15	Z15	X16	Y16	Z16	X17	Y17	Z17	X18	Y18	Z18	
26	0.216667	-182.888	77.8596	13.7567	-167.6	99.6413	1.59614	-146.691	104.672	-7.61228	-126.906	109.612	-11.8028	-126.525	90.7228	-12.5566	-116.189	99.8887	12.9969	-141.333	91.7392	25.455	-111.706	76.3104	3.02948	-116.195	92.5751	25.3509	-145.045	81.8661	33.0713	-107.329	66.9184	8.85754	-115.898	80.8796	31.2195	-142.779	69.3897	30.6576	-107.761	33.8181	10.9408	-88.1163	41.784	5.88455	-70.8996	43.5851	3.33789	-146.413	32.5155	6.25536	-172.684	24.2947	20.4944	-172.545	50.6456	1.3434	
27	0.225	-182.151	68.7096	14.1276	-177.777	94.5964	-1.40834	-157.342	105.497	-18.105	-140.386	116.426	-25.0477	-131.764	90.2942	-18.3487	-128.438	110.675	4.56759	-145.974	93.2577	19.6413	-117.92	88.1321	-5.74608	-121.006	100.236	20.4429	-151.195	83.3905	25.0019	-107.014	74.1826	4.12039	-119.291	89.8314	25.6308	-139.535	74.7966	29.0106	-100.304	44.6238	8.585	-88.388	54.5738	2.18077	-68.9339	60.9383	-3.68685	-143.049	37.4842	6.22326	-160.569	24.76	23.9854	-165.829	45.803	0.661459	
28	0.233333	-183.331	63.3416	8.85925	-179.325	82.604	-5.13044	-165.857	94.8253	-23.5483	-152.429	105.605	-34.6277	-137.177	87.77	-29.5223	-132.299	106.709	-10.8577	-150.725	88.2169	10.073	-124.598	82.9675	-18.9939	-127.666	102.989	5.91615	-145.423	83.3681	18.6357	-110.198	78.7501	-7.62432	-122.451	94.2126	10.537	-139.675	76.0538	17.9254	-100.201	49.6771	-2.72461	-83.3665	58.7967	-9.8017	-68.4491	64.5937	-19.5979	-133.816	33.2823	2.07232	-154.776	22.5719	24.2623	-165.009	37.2133	1.05061	
29	0.241667	-183.183	54.7299	10.7489	-180.191	69.8764	-12.8269	-176.112	81.0213	-34.4294	-163.095	90.1076	-49.9331	-144.06	69.3568	-41.0673	-139.646	95.9795	-29.4219	-155.717	84.3076	-3.85425	-124.9	71.0823	-31.6313	-128.766	93.92	-12.6197	-149.46	74.4496	5.76197	-114.402	67.1988	-22.9115	-121.935	86.3625	-7.32349	-136.057	70.0827	9.06318	-103.493	42.7692	-14.0386	-87.6593	48.94	-26.8854	-76.1411	55.4562	-40.2567	-139.146	26.8513	2.08117	-149.943	21.0601	23.6047	-166.048	28.6572	2.01313	
30	0.25	-180.88	45.9936	8.24384	-185.958	57.5073	-18.9061	-177.746	60.7494	-37.0702	-169.127	63.4186	-59.2193	-154.962	50.4286	-51.8268	-144.074	73.1905	-46.6148	-154.727	72.0187	-14.1692	-133.268	47.4012	-40.3465	-131.014	76.9812	-29.8076	-146.215	66.835	-4.62773	-118.908	47.3049	-35.4596	-122.753	71.4447	-22.2365	-140.873	59.7376	-5.10138	-107.397	25.3227	-20.0364	-97.069	27.54	-33.3545	-85.193	29.1972	-54.4685	-137.35	13.6634	2.91179	-148.689	15.7702	29.5432	-166.973	18.5184	6.55452	
31	0.258333	-188.271	45.7821	12.2652	-193.654	51.3489	-18.0365	-188.734	45.361	-36.9203	-187.001	43.1391	-60.5199	-168.078	25.3445	-49.8653	-158.611	48.9002	-56.1379	-162.003	61.5444	-27.3224	-148.878	25.7393	-45.9224	-141.729	53.317	-42.5909	-155.427	56.4452	-13.6611	-132.15	19.2784	-35.1136	-130.817	44.1718	-38.358	-144.846	48.2539	-12.7599	-123.382	3.14646	-14.1502	-113.935	-3.70788	-33.9128	-109.645	-6.34598	-50.5726	-152.362	4.55768	10.5964	-159.39	15.7236	35.8743	-181.576	17.26	12.6132	
32	0.266667	-191.695	52.0181	12.7788	-196.567	54.1357	-14.3072	-199.001	46.6991	-36.9171	-197.259	36.4981	-55.3282	-191.215	18.1675	-40.9715	-170.292	33.9712	-55.6605	-164.151	51.5176	-31.8651	-168.141	9.96805	-38.6426	-151.02	33.5617	-47.5921	-158.389	47.945	-19.0391	-156.335	2.11044	-32.9753	-142.992	23.2024	-41.4386	-149.599	37.7569	-17.671	-146.4	-13.8208	-9.22335	-147.056	-23.5156	-28.1046	-142.316	-31.6877	-48.0535	-169.851	1.22717	16.5557	-170.647	18.205	40.4574	-188.491	21.2648	21.4429	
33	0.275	-191.601	63.5246	14.5655	-197.563	63.4026	-14.3212	-204.196	52.7955	-37.3245	-205.298	45.7932	-52.1256	-202.867	23.1025	-36.6145	-181.759	31.0701	-54.3204	-169.06	48.8481	-32.9633	-187.027	13.0428	-38.8366	-164.452	27.3436	-47.6854	-161.299	44.0195	-21.2635	-177.313	0.636619	-32.811	-159.918	15.3815	-41.3184	-158.422	31.9593	-16.8228	-173.809	-20.1715	-8.09411	-177.549	-27.9104	-24.845	-177.59	-40.2602	-39.9665	-188.437	8.26048	18.6847	-181.601	19.7648	39.6861	-199.692	30.1365	24.3984	
34	0.283333	-183.427	66.9105	16.4053	-188.269	73.8369	-12.6847	-197.957	67.2006	-32.5195	-205.878	58.8309	-51.2627	-213.863	41.0206	-34.9216	-188.552	39.6944	-52.9692	-170.942	46.9648	-35.5923	-202.239	23.2854	-39.8208	-173.879	28.9565	-46.3019	-168.264	42.1899	-16.9639	-197.644	5.13182	-31.8209	-175.36	19.0822	-43.1325	-167.018	29.6569	-17.3359	-197.881	-11.1523	-6.00758	-209.799	-21.3927	-24.9093	-217.012	-28.8713	-41.6333	-202.135	16.839	18.8776	-187.869	23.9963	42.7889	-203.259	40.0829	25.4443	
35	0.291667	-172.512	68.4924	16.3985	-179.991	76.0902	-13.0693	-189.148	74.9588	-31.1816	-198.41	71.972	-51.4324	-214.196	60.0434	-36.7253	-189.989	53.3148	-54.9912	-171.731	49.7141	-36.6086	-209.86	34.3274	-40.5451	-181.725	34.9893	-47.8761	-170.239	42.5092	-19.5412	-211.836	18.552	-34.4192	-185.105	22.9607	-44.6419	-174.507	29.9707	-21.8106	-223.946	1.59083	-11.4254	-235.21	-2.58489	-27.2253	-243.539	-8.76407	-39.6887	-213.803	25.9949	16.4829	-197.673	26.7512	40.2249	-200.679	50.1944	25.353	
36	0.3	-166.319	67.0329	15.0225	-170.051	76.1535	-13.284	-177.701	79.8455	-32.3023	-184.387	85.6885	-55.2123	-208.139	70.16	-38.2014	-192.73	58.5003	-57.0325	-172.334	47.3968	-37.3668	-211.972	51.34	-40.8043	-186.687	41.4809	-52.4158	-174.199	37.9469	-21.7083	-219.232	35.2343	-35.532	-196.524	29.9291	-48.4265	-180.376	33.4879	-21.2231	-235.535	23.3598	-16.5247	-246.861	23.1942	-30.3442	-261.342	18.4992	-44.3433	-217.226	37.0904	15.4031	-204.219	35.6992	36.305	-199.147	58.3765	22.9491	
37	0.308333	-165.039	65.1218	11.3843	-162.809	76.9758	-15.8825	-166.782	82.006	-34.286	-171.113	89.62	-56.4201	-199.256	80.2344	-45.4143	-184.619	63.4317	-59.6574	-168.452	51.5128	-38.0263	-209.976	62.9376	-42.7289	-188.45	45.0586	-54.0288	-178.279	40.3165	-24.354	-221.67	50.0266	-40.3702	-196.14	39.5863	-51.266	-185.426	33.697	-23.7271	-238.646	41.0243	-16.766	-252.075	43.7976	-33.2191	-262.786	50.2516	-46.6687	-215.579	54.4571	12.135	-209.977	43.4504	33.3093	-194.859	70.6931	18.4663	
38	0.316667	-162	63.1157	9.58652	-149.13	71.9994	-17.7717	-152.864	80.3072	-39.5074	-159.261	82.3011	-57.8738	-184.892	86.9974	-46.4466	-172.805	64.5813	-62.7532	-167.287	47.5087	-39.2201	-197.416	74.7743	-48.8877	-184.88	47.5792	-56.5107	-177.544	43.2875	-23.6492	-213.331	65.359	-47.6454	-197.053	45.4647	-55.8321	-186.191	38.5312	-30.7171	-236.938	63.464	-26.469	-248.929	66.2857	-40.7093	-260.48	72.1913	-60.6017	-214.613	66.6102	5.54565	-205.55	59.6764	27.5244	-186.998	78.4117	15.1331	
39	0.325	-149.92	57.0656	7.94489	-136.866	55.2159	-16.4238	-135.293	60.6032	-44.0208	-140.926	62.4528	-67.4508	-161.395	73.3196	-57.222	-160.382	49.9816	-64.6705	-158.278	36.925	-34.5736	-181.496	67.1444	-56.8583	-176.321	38.3927	-54.526	-172.736	36.5282	-25.5439	-194.695	68.818	-52.6129	-188.645	41.9247	-55.0837	-182.526	36.9526	-26.6196	-219.769	79.5083	-36.7548	-226.73	82.2423	-54.0557	-232.391	83.4597	-75.0093	-193.245	82.3339	-1.27773	-193.841	72.9034	21.8461	-165.85	79.238	9.67401	
40	0.333333	-123.091	38.5484	9.91625	-115.329	26.434	-12.8707	-112.213	21.2143	-36.5514	-116.54	16.0979	-59.2228	-133.066	37.9121	-57.8591	-143.713	14.4896	-52.9511	-148.953	17.6915	-24.6351	-152.201	41.291	-56.7458	-162.276	16.5371	-46.6526	-153.906	23.9018	-16.1523	-167.129	49.7636	-56.0799	-171.431	23.8579	-48.5391	-164.219	30.7559	-19.265	-178.607	73.4049	-46.5691	-187.033	72.1102	-64.9484	-188.018	70.9364	-85.7973	-159.016	79.7342	-15.8783	-158.598	78.8359	12.9417	-134.186	70.0302	1.57502	
41	0.341667	-112.69	34.738	17.2382	-107.198	14.9523	2.26851	-101.08	0.435181	-23.1119	-105.476	-7.6622	-41.8591	-117.93	13.19	-45.1725	-131.169	-9.29881	-38.1412	-137.775	3.16016	-11.3957	-140.923	13.9417	-47.8753	-150.231	-5.84017	-28.7802	-147.081	15.608	-3.78152	-156.491	23.1112	-49.1036	-158.002	1.79142	-31.579	-151.576	18.1231	-9.10942	-170.58	49.2611	-50.4552	-173.556	39.8286	-67.9742	-178.428	29.1234	-87.3646	-146.336	63.6449	-19.5111	-145.92	71.1714	6.43875	-122.088	59.5703	0.637818	
